<svg width="627" height="102" viewBox="0 0 627 102" fill="none" xmlns="http://www.w3.org/2000/svg">
<path d="M627 101.73L628 101.73L628 102.73L627 102.73L627 101.73ZM-0.707111 102.438C-1.09764 102.047 -1.09764 101.414 -0.707111 101.023L5.65685 94.6594C6.04737 94.2688 6.68054 94.2688 7.07106 94.6594C7.46159 95.0499 7.46159 95.6831 7.07106 96.0736L1.41421 101.73L7.07106 107.387C7.46159 107.778 7.46159 108.411 7.07106 108.802C6.68054 109.192 6.04737 109.192 5.65685 108.802L-0.707111 102.438ZM628 0.730496L628 101.73L626 101.73L626 0.730496L628 0.730496ZM627 102.73L-4.45856e-06 102.73L-4.37114e-06 100.73L627 100.73L627 102.73Z" fill="#333333"/>
</svg>
