<svg xmlns="http://www.w3.org/2000/svg" width="659" height="504" fill="none"><path fill="url(#a)" stroke="url(#b)" d="m283.989 179.267.009-.367-.346-.119a1.485 1.485 0 0 1-.651-.432c-20.19-23.602-11.862-62.231 18.96-86.276L418.54 1.124c1.108-.864 2.451-.77 3.035-.087 20.19 23.6 11.862 62.23-18.96 86.276l-110.818 86.454.495.858 131.789-53.586c36.632-14.894 76.356-3.979 88.863 24.073l.457-.203-.457.203c.345.775-.152 1.933-1.478 2.473l-138.504 56.316c-36.632 14.895-76.356 3.979-88.863-24.073a1.284 1.284 0 0 1-.11-.561zM145.594 317.95l.699.701 118.258-88.433c31.339-23.435 72.673-22.721 92.367 1.296.55.67.376 1.906-.749 2.747l-118.521 88.63c-31.338 23.435-72.673 22.721-92.367-1.297-.438-.534-.423-1.394.168-2.173l-.661-.727c-.752.462-1.571.478-2.117.102-25.911-17.815-28.324-57.19-5.078-88.022l87.958-116.664c.828-1.098 2.148-1.349 2.908-.826 25.911 17.815 28.324 57.19 5.078 88.022L145.594 317.95zM38.875 487.577l.858.494 87.885-111.632c23.911-30.371 64.029-39.908 89.572-21.569.724.52.879 1.758.029 2.837l-90.461 114.905c-23.911 30.371-64.03 39.908-89.572 21.569-.381-.274-.596-.716-.606-1.242l-.013-.645-.621.174a1.604 1.604 0 0 1-.983-.024l-.154.426.154-.426C5.09 481.634-7.902 444.187 6.19 408.67l53.342-134.428c.498-1.254 1.697-1.827 2.58-1.508 29.872 10.81 42.864 48.257 28.771 83.774L38.875 487.577zM569.736 18.44c36.757-14.614 76.387-3.394 88.658 24.753.338.777-.168 1.932-1.5 2.461l-138.972 55.253c-36.757 14.613-76.387 3.393-88.658-24.754-.339-.777.168-1.932 1.5-2.461L569.736 18.44z"/><defs><linearGradient id="a" x1="0" x2="608.011" y1="237.342" y2="237.342" gradientUnits="userSpaceOnUse"><stop stop-opacity="0"/><stop offset="1" stop-color="#fff" stop-opacity=".55"/></linearGradient><linearGradient id="b" x1="13.052" x2="659" y1="282.233" y2="282.233" gradientUnits="userSpaceOnUse"><stop stop-color="#fff" stop-opacity=".08"/><stop offset="1" stop-opacity="0"/></linearGradient></defs></svg>