<svg width="9" height="11" viewBox="0 0 9 11" fill="none" xmlns="http://www.w3.org/2000/svg">
<path d="M6.216 10.128C5.888 10.128 5.608 10.088 5.376 10.008C5.144 9.928 4.936 9.8 4.752 9.624C4.568 9.44 4.384 9.204 4.2 8.916L4.44 8.892C4.264 9.22 4.072 9.476 3.864 9.66C3.664 9.836 3.444 9.956 3.204 10.02C2.972 10.092 2.716 10.128 2.436 10.128C2.052 10.128 1.712 10.052 1.416 9.9C1.128 9.74 0.9 9.52 0.732 9.24C0.572 8.952 0.492 8.624 0.492 8.256C0.492 7.984 0.572 7.7 0.732 7.404C0.9 7.108 1.16 6.872 1.512 6.696L1.368 6.888H0V6H2.808V6.852C2.328 6.956 1.984 7.128 1.776 7.368C1.568 7.608 1.464 7.884 1.464 8.196C1.464 8.492 1.556 8.732 1.74 8.916C1.924 9.092 2.176 9.18 2.496 9.18C2.896 9.18 3.212 9.052 3.444 8.796C3.684 8.532 3.82 8.188 3.852 7.764H4.776C4.8 8.092 4.876 8.36 5.004 8.568C5.14 8.776 5.308 8.932 5.508 9.036C5.708 9.132 5.912 9.18 6.12 9.18C6.344 9.18 6.552 9.14 6.744 9.06C6.944 8.98 7.104 8.832 7.224 8.616C7.344 8.4 7.404 8.088 7.404 7.68C7.404 7.208 7.304 6.792 7.104 6.432C6.912 6.064 6.648 5.752 6.312 5.496C5.984 5.232 5.616 5.02 5.208 4.86L5.928 4.26C6.416 4.452 6.844 4.712 7.212 5.04C7.588 5.368 7.88 5.752 8.088 6.192C8.296 6.624 8.4 7.096 8.4 7.608C8.4 8.176 8.304 8.648 8.112 9.024C7.92 9.4 7.66 9.68 7.332 9.864C7.004 10.04 6.632 10.128 6.216 10.128ZM7.752 3.348C7.752 3.612 7.704 3.84 7.608 4.032C7.52 4.216 7.412 4.36 7.284 4.464C7.1 4.616 6.876 4.724 6.612 4.788C6.356 4.852 6 4.884 5.544 4.884H4.08V3.984H5.688C5.944 3.984 6.136 3.972 6.264 3.948C6.4 3.924 6.508 3.876 6.588 3.804C6.652 3.748 6.696 3.684 6.72 3.612C6.752 3.54 6.768 3.456 6.768 3.36C6.768 3.256 6.752 3.164 6.72 3.084C6.688 3.004 6.64 2.936 6.576 2.88C6.496 2.816 6.396 2.768 6.276 2.736C6.156 2.704 5.956 2.688 5.676 2.688H1.008V1.788H5.604C6.044 1.788 6.388 1.82 6.636 1.884C6.892 1.948 7.112 2.06 7.296 2.22C7.432 2.34 7.54 2.492 7.62 2.676C7.708 2.852 7.752 3.076 7.752 3.348ZM6.48 0C6.968 0 7.348 0.104 7.62 0.312C7.9 0.512 8.108 0.792 8.244 1.152L7.332 1.392C7.292 1.272 7.236 1.168 7.164 1.08C7.092 0.984 7 0.912 6.888 0.864C6.784 0.816 6.652 0.792 6.492 0.792C6.276 0.792 6.088 0.848 5.928 0.96C5.768 1.072 5.688 1.236 5.688 1.452C5.688 1.564 5.724 1.692 5.796 1.836C5.876 1.972 6.036 2.12 6.276 2.28L5.388 2.616C5.172 2.416 5.016 2.216 4.92 2.016C4.832 1.816 4.788 1.596 4.788 1.356C4.788 1.068 4.86 0.824 5.004 0.624C5.156 0.424 5.36 0.272 5.616 0.168C5.872 0.056 6.16 0 6.48 0Z" fill="black"/>
</svg>
